<svg xmlns="http://www.w3.org/2000/svg" width="27.682" height="27.781" viewBox="0 0 27.682 27.781"><defs><style>.a{fill:#fff;stroke:#fff;stroke-width:4px;}</style></defs><path class="a" d="M634.176,533.342a.725.725,0,0,1-.219.532.708.708,0,0,1-.518.22.728.728,0,0,1-.53-.231l-7.144-7.211a8.919,8.919,0,0,1-6.037,2.265,9.026,9.026,0,0,1-4.632-1.237,9.248,9.248,0,1,1,13.852-8.008,8.959,8.959,0,0,1-2.143,5.917l7.167,7.234a.7.7,0,0,1,.2.519Zm-12.676-6.09a7.519,7.519,0,0,0,1.636-.59,8.167,8.167,0,0,0,1.429-.913,7.158,7.158,0,0,0,1.2-1.214,8.572,8.572,0,0,0,.911-1.444,7.574,7.574,0,0,0,.587-1.641,7.741,7.741,0,1,0-11.44,4.959,7.554,7.554,0,0,0,3.906,1.052,7.655,7.655,0,0,0,1.771-.209Z" transform="translate(-608.495 -508.313)"/></svg>